<svg width="24" height="24" viewBox="0 0 24 24" fill="none" xmlns="http://www.w3.org/2000/svg">
<g id="Frame">
<path id="Vector" d="M11.9997 7.49998C11.1097 7.49998 10.2396 7.7639 9.49962 8.25837C8.7596 8.75284 8.18283 9.45564 7.84223 10.2779C7.50164 11.1002 7.41252 12.005 7.58616 12.8779C7.75979 13.7508 8.18837 14.5526 8.81771 15.182C9.44705 15.8113 10.2489 16.2399 11.1218 16.4135C11.9947 16.5871 12.8995 16.498 13.7218 16.1574C14.544 15.8168 15.2468 15.2401 15.7413 14.5C16.2358 13.76 16.4997 12.89 16.4997 12C16.4984 10.8069 16.0239 9.66302 15.1803 8.81937C14.3367 7.97573 13.1928 7.50122 11.9997 7.49998ZM11.9997 15C11.4063 15 10.8263 14.824 10.333 14.4944C9.83963 14.1647 9.45511 13.6962 9.22805 13.148C9.00099 12.5999 8.94158 11.9967 9.05733 11.4147C9.17309 10.8328 9.45881 10.2982 9.87837 9.87866C10.2979 9.4591 10.8325 9.17338 11.4144 9.05763C11.9964 8.94187 12.5996 9.00128 13.1477 9.22834C13.6959 9.45541 14.1645 9.83992 14.4941 10.3333C14.8237 10.8266 14.9997 11.4066 14.9997 12C14.9997 12.7956 14.6836 13.5587 14.121 14.1213C13.5584 14.6839 12.7953 15 11.9997 15ZM22.3066 10.0509C22.2857 9.94531 22.2423 9.84543 22.1794 9.75807C22.1164 9.67072 22.0354 9.59793 21.9419 9.54467L19.1453 7.95092L19.1341 4.79904C19.1337 4.6905 19.1098 4.58331 19.064 4.4849C19.0182 4.38649 18.9516 4.29919 18.8688 4.22904C17.8543 3.37095 16.6861 2.71336 15.4263 2.29123C15.327 2.25765 15.2219 2.24522 15.1176 2.25475C15.0133 2.26428 14.9121 2.29555 14.8206 2.34654L11.9997 3.92342L9.17594 2.34373C9.0844 2.29245 8.98311 2.26094 8.87863 2.25125C8.77414 2.24156 8.66879 2.2539 8.56938 2.28748C7.31045 2.71269 6.14359 3.37279 5.13063 4.23279C5.04791 4.30284 4.98136 4.38999 4.93556 4.48823C4.88975 4.58647 4.86579 4.69347 4.86532 4.80186L4.85125 7.95654L2.05469 9.55029C1.96113 9.60356 1.88013 9.67634 1.8172 9.7637C1.75428 9.85105 1.71089 9.95093 1.69 10.0565C1.43406 11.3427 1.43406 12.6667 1.69 13.9528C1.71089 14.0584 1.75428 14.1583 1.8172 14.2456C1.88013 14.333 1.96113 14.4058 2.05469 14.459L4.85125 16.0528L4.8625 19.2047C4.86284 19.3132 4.88674 19.4204 4.93255 19.5188C4.97835 19.6172 5.04498 19.7045 5.12782 19.7747C6.14226 20.6328 7.31046 21.2904 8.57031 21.7125C8.66953 21.7461 8.77468 21.7585 8.87899 21.749C8.98329 21.7394 9.08445 21.7082 9.17594 21.6572L11.9997 20.0765L14.8234 21.6562C14.9352 21.7185 15.0611 21.7508 15.1891 21.75C15.271 21.75 15.3523 21.7367 15.43 21.7106C16.6888 21.286 17.8556 20.6265 18.8688 19.7672C18.9515 19.6971 19.018 19.61 19.0638 19.5117C19.1096 19.4135 19.1336 19.3065 19.1341 19.1981L19.1481 16.0434L21.9447 14.4497C22.0383 14.3964 22.1192 14.3236 22.1822 14.2363C22.2451 14.1489 22.2885 14.049 22.3094 13.9434C22.5639 12.6583 22.5629 11.3357 22.3066 10.0509ZM20.9003 13.3237L18.2219 14.8472C18.1045 14.9139 18.0074 15.0111 17.9406 15.1284C17.8863 15.2222 17.8291 15.3215 17.7709 15.4153C17.6965 15.5335 17.6569 15.6703 17.6566 15.81L17.6425 18.8334C16.9226 19.3988 16.1205 19.8509 15.2641 20.174L12.5622 18.6684C12.45 18.6064 12.3238 18.5741 12.1956 18.5747H12.1778C12.0644 18.5747 11.95 18.5747 11.8366 18.5747C11.7024 18.5713 11.5697 18.6037 11.4522 18.6684L8.74844 20.1778C7.89017 19.8571 7.0859 19.4072 6.36344 18.8437L6.35313 15.825C6.35266 15.685 6.31305 15.548 6.23875 15.4294C6.18063 15.3356 6.12344 15.2419 6.07 15.1425C6.00374 15.0233 5.90659 14.9242 5.78875 14.8556L3.1075 13.3284C2.96875 12.4507 2.96875 11.5567 3.1075 10.679L5.78125 9.15279C5.89861 9.08607 5.99577 8.9889 6.0625 8.87154C6.11688 8.77779 6.17407 8.67842 6.23219 8.58467C6.30659 8.46644 6.34623 8.32967 6.34656 8.18998L6.36063 5.16654C7.08056 4.60118 7.88262 4.14909 8.73907 3.82592L11.4372 5.33154C11.5546 5.39663 11.6874 5.42901 11.8216 5.42529C11.935 5.42529 12.0494 5.42529 12.1628 5.42529C12.297 5.42865 12.4296 5.39629 12.5472 5.33154L15.2509 3.82217C16.1092 4.14286 16.9135 4.59274 17.6359 5.15623L17.6463 8.17498C17.6467 8.31495 17.6863 8.45199 17.7606 8.57061C17.8188 8.66436 17.8759 8.75811 17.9294 8.85748C17.9956 8.97665 18.0928 9.07575 18.2106 9.14436L20.8919 10.6715C21.0325 11.5499 21.0341 12.4449 20.8966 13.3237H20.9003Z" fill="#7F778D"/>
</g>
</svg>
