<svg width="24" height="24" viewBox="0 0 24 24" fill="none" xmlns="http://www.w3.org/2000/svg">
<g id="Frame">
<path id="Vector" d="M12 3C10.22 3 8.47991 3.52784 6.99987 4.51677C5.51983 5.50571 4.36628 6.91131 3.68509 8.55585C3.0039 10.2004 2.82567 12.01 3.17294 13.7558C3.5202 15.5016 4.37737 17.1053 5.63604 18.364C6.89471 19.6226 8.49836 20.4798 10.2442 20.8271C11.99 21.1743 13.7996 20.9961 15.4442 20.3149C17.0887 19.6337 18.4943 18.4802 19.4832 17.0001C20.4722 15.5201 21 13.78 21 12C20.9975 9.61382 20.0485 7.3261 18.3612 5.63882C16.6739 3.95154 14.3862 3.00252 12 3ZM19.5834 11.3077H16.1365C16.0145 8.84481 15.2478 6.5074 13.9627 4.64423C15.4678 5.04831 16.8131 5.9034 17.8179 7.0946C18.8227 8.28581 19.4388 9.75603 19.5834 11.3077ZM12 19.6059C10.3791 17.8517 9.39606 15.3655 9.25068 12.6923H14.7493C14.6039 15.3637 13.6209 17.8517 12 19.6059ZM9.25068 11.3077C9.39606 8.63625 10.3757 6.14827 12 4.39413C13.6209 6.14827 14.6039 8.63452 14.7493 11.3077H9.25068ZM10.0373 4.64423C8.75221 6.5074 7.98548 8.84481 7.86346 11.3077H4.41664C4.56123 9.75603 5.17732 8.28581 6.1821 7.0946C7.18689 5.9034 8.53222 5.04831 10.0373 4.64423ZM4.41664 12.6923H7.86346C7.98548 15.1552 8.75221 17.4926 10.0373 19.3558C8.53222 18.9517 7.18689 18.0966 6.1821 16.9054C5.17732 15.7142 4.56123 14.244 4.41664 12.6923ZM13.9627 19.3558C15.2478 17.49 16.0145 15.1526 16.1365 12.6923H19.5834C19.4388 14.244 18.8227 15.7142 17.8179 16.9054C16.8131 18.0966 15.4678 18.9517 13.9627 19.3558Z" fill="#7F778D"/>
</g>
</svg>
