<svg width="24" height="24" viewBox="0 0 24 24" fill="none" xmlns="http://www.w3.org/2000/svg">
<g id="Frame">
<path id="Vector" d="M19.5692 9.77958L12.9025 3.36324C12.8992 3.36033 12.8962 3.35721 12.8933 3.35388C12.6479 3.12618 12.328 3 11.9963 3C11.6645 3 11.3446 3.12618 11.0992 3.35388L11.09 3.36324L4.43083 9.77958C4.295 9.907 4.18657 10.0618 4.11241 10.2342C4.03825 10.4065 3.99997 10.5927 4 10.781V18.6399C4 19.0006 4.14048 19.3466 4.39052 19.6016C4.64057 19.8567 4.97971 20 5.33333 20H18.6667C19.0203 20 19.3594 19.8567 19.6095 19.6016C19.8595 19.3466 20 19.0006 20 18.6399V10.781C20 10.5927 19.9618 10.4065 19.8876 10.2342C19.8134 10.0618 19.705 9.907 19.5692 9.77958ZM18.6667 18.6399H5.33333V10.781L5.3425 10.7725L12 4.35867L18.6583 10.7708L18.6675 10.7793L18.6667 18.6399Z" fill="url(#paint0_linear_341_3990)"/>
</g>
<defs>
<linearGradient id="paint0_linear_341_3990" x1="12" y1="3" x2="12" y2="20" gradientUnits="userSpaceOnUse">
<stop stop-color="#353337"/>
<stop offset="1" stop-color="#7D7D7D"/>
</linearGradient>
</defs>
</svg>
