<?xml version="1.0" encoding="iso-8859-1"?>
<!-- Uploaded to: SVG Repo, www.svgrepo.com, Generator: SVG Repo Mixer Tools -->
<svg version="1.1" id="Layer_1" xmlns="http://www.w3.org/2000/svg" xmlns:xlink="http://www.w3.org/1999/xlink" 
	 viewBox="0 0 512 512" xml:space="preserve">
<path style="fill:#36495E;" d="M256,512c-38.482,0-69.789-31.307-69.789-69.789c0-11.248,9.119-20.366,20.366-20.366h98.845
	c11.248,0,20.366,9.119,20.366,20.366C325.788,480.693,294.482,512,256,512z"/>
<path style="fill:#2C3E50;" d="M305.421,421.844H256V512c38.482,0,69.788-31.307,69.788-69.789
	C325.788,430.963,316.67,421.844,305.421,421.844z"/>
<path style="fill:#6A82A1;" d="M316.529,462.577H195.471c-26.204,0-47.522-21.318-47.522-47.522V283.42
	c0-16.756,19.199-26.36,32.607-16.278c44.422,33.401,106.468,33.401,150.89,0c13.393-10.071,32.607-0.498,32.607,16.278v131.635
	C364.051,441.259,342.733,462.577,316.529,462.577z"/>
<g>
	<path style="fill:#36495E;" d="M331.444,267.142c-22.21,16.701-48.828,25.051-75.444,25.051v170.385h60.529
		c26.204,0,47.522-21.318,47.522-47.522V283.42C364.051,266.663,344.854,257.059,331.444,267.142z"/>
	<rect x="147.956" y="352.598" style="fill:#36495E;" width="216.102" height="40.733"/>
</g>
<path style="fill:#FFDA79;" d="M255.89,333.022c-90.262,0-166.406-72.744-166.406-166.519C89.484,74.693,164.182,0,256,0
	s166.516,74.693,166.516,166.503c0,93.968-76.256,166.167-165.957,166.518C256.335,333.021,256.113,333.022,255.89,333.022z"/>
<g>
	<path style="fill:#FFD155;" d="M256,0v333.021c0.186,0,0.372-0.001,0.559-0.001c89.644-0.35,165.957-72.482,165.957-166.518
		C422.516,74.693,347.818,0,256,0z"/>
	<path style="fill:#FFD155;" d="M256,237.314c-7.276,0-14-3.882-17.637-10.183l-46.715-80.913
		c-5.625-9.741-2.288-22.197,7.454-27.821c9.741-5.624,22.197-2.288,27.821,7.454L256,176.215l29.078-50.364
		c5.624-9.741,18.079-13.079,27.821-7.454c9.742,5.624,13.079,18.08,7.454,27.821l-46.715,80.913
		C269.999,233.433,263.276,237.314,256,237.314z"/>
</g>
<rect x="255.993" y="352.598" style="fill:#2C3E50;" width="108.051" height="40.733"/>
<path style="fill:#FFC72D;" d="M312.899,118.397c-9.742-5.625-22.198-2.286-27.821,7.454L256,176.215v61.098
	c7.276,0,13.999-3.882,17.637-10.183l46.715-80.913C325.978,136.477,322.641,124.021,312.899,118.397z"/>
</svg>