<svg width="35" height="35" viewBox="0 0 35 35" fill="none" xmlns="http://www.w3.org/2000/svg">
<rect x="0.5" y="0.5" width="34" height="34" rx="6.5" fill="url(#paint0_linear_404_1661)" stroke="url(#paint1_linear_404_1661)"/>
<g filter="url(#filter0_d_404_1661)">
<circle cx="18.4232" cy="19.057" r="5.28846" fill="white"/>
<path d="M21.7421 18.0669L21.7417 18.0671L19.2883 19.0481L20.7125 20.95L21.7421 18.0669ZM21.7421 18.0669C21.8412 18.0269 21.9314 17.9678 22.0076 17.8929C22.0839 17.8181 22.1446 17.7289 22.1863 17.6306C22.2281 17.5322 22.2501 17.4266 22.2511 17.3198C22.252 17.2129 22.2319 17.107 22.1919 17.0079L22.076 17.0547L22.1919 17.0079C22.1519 16.9088 22.0928 16.8186 22.0179 16.7424C21.9431 16.6661 21.8539 16.6054 21.7556 16.5637C21.6572 16.5219 21.5516 16.4999 21.4448 16.4989C21.338 16.498 21.2321 16.5181 21.1331 16.558C21.133 16.558 21.133 16.5581 21.1329 16.5581L18.8125 17.487V15.25C18.8125 15.0345 18.7269 14.8279 18.5745 14.6755C18.4221 14.5231 18.2155 14.4375 18 14.4375C17.7845 14.4375 17.5779 14.5231 17.4255 14.6755C17.2731 14.8279 17.1875 15.0345 17.1875 15.25V17.487L14.8671 16.5581C14.8671 16.5581 14.867 16.558 14.867 16.558C14.6669 16.4773 14.443 16.4793 14.2444 16.5637C14.1461 16.6054 14.0569 16.6661 13.9821 16.7424C13.9072 16.8186 13.8481 16.9088 13.8081 17.0079C13.7681 17.107 13.748 17.2129 13.7489 17.3198C13.7499 17.4266 13.7719 17.5322 13.8137 17.6306C13.898 17.8292 14.0578 17.9861 14.2579 18.0669L14.2583 18.0671L16.7141 19.0481L15.2875 20.95L15.2875 20.95C15.2235 21.0354 15.1769 21.1325 15.1504 21.2359C15.1239 21.3392 15.1181 21.4468 15.1332 21.5524C15.1483 21.658 15.184 21.7597 15.2384 21.8515C15.2927 21.9433 15.3646 22.0235 15.45 22.0875C15.5354 22.1515 15.6325 22.1981 15.7359 22.2246C15.8392 22.2511 15.9468 22.2569 16.0524 22.2418C16.158 22.2267 16.2597 22.191 16.3515 22.1366C16.4433 22.0823 16.5235 22.0104 16.5875 21.925L16.5875 21.925L18 20.0414M21.7421 18.0669L18 20.0414M18 20.0414L19.4125 21.925L19.4125 21.925C19.5418 22.0974 19.7343 22.2114 19.9476 22.2418C20.1609 22.2723 20.3776 22.2168 20.55 22.0875C20.7224 21.9582 20.8364 21.7657 20.8668 21.5524C20.8973 21.3391 20.8418 21.1225 20.7126 20.9501L18 20.0414ZM17.6108 27.4337L17.6097 27.4333C16.3122 27.0025 9.875 24.4758 9.875 16.863V11.8125C9.875 11.481 10.0067 11.163 10.2411 10.9286C10.4755 10.6942 10.7935 10.5625 11.125 10.5625H24.875C25.2065 10.5625 25.5245 10.6942 25.7589 10.9286C25.9933 11.163 26.125 11.481 26.125 11.8125V16.8622C26.125 24.4749 19.6895 27.0017 18.3903 27.4333L18.3892 27.4337C18.1369 27.52 17.8631 27.52 17.6108 27.4337Z" fill="url(#paint2_angular_404_1661)" stroke="url(#paint3_linear_404_1661)" stroke-width="0.249994"/>
</g>
<defs>
<filter id="filter0_d_404_1661" x="2.00012" y="4.25006" width="31.9998" height="31.9998" filterUnits="userSpaceOnUse" color-interpolation-filters="sRGB">
<feFlood flood-opacity="0" result="BackgroundImageFix"/>
<feColorMatrix in="SourceAlpha" type="matrix" values="0 0 0 0 0 0 0 0 0 0 0 0 0 0 0 0 0 0 127 0" result="hardAlpha"/>
<feOffset dy="2.24995"/>
<feGaussianBlur stdDeviation="2.49994"/>
<feComposite in2="hardAlpha" operator="out"/>
<feColorMatrix type="matrix" values="0 0 0 0 0 0 0 0 0 0 0 0 0 0 0 0 0 0 0.25 0"/>
<feBlend mode="normal" in2="BackgroundImageFix" result="effect1_dropShadow_404_1661"/>
<feBlend mode="normal" in="SourceGraphic" in2="effect1_dropShadow_404_1661" result="shape"/>
</filter>
<linearGradient id="paint0_linear_404_1661" x1="17.5" y1="0" x2="17.5" y2="35" gradientUnits="userSpaceOnUse">
<stop stop-color="#222024"/>
<stop offset="1" stop-color="#100F11"/>
</linearGradient>
<linearGradient id="paint1_linear_404_1661" x1="17.5" y1="0" x2="17.5" y2="35" gradientUnits="userSpaceOnUse">
<stop stop-color="#AF7EFF"/>
<stop offset="1" stop-color="#5F1DCC"/>
</linearGradient>
<radialGradient id="paint2_angular_404_1661" cx="0" cy="0" r="1" gradientUnits="userSpaceOnUse" gradientTransform="translate(18 19.0305) rotate(90) scale(8.59298 8.25)">
<stop stop-color="white"/>
<stop offset="0.442708" stop-color="#853BFF"/>
<stop offset="1" stop-color="#7F778D"/>
</radialGradient>
<linearGradient id="paint3_linear_404_1661" x1="18" y1="10.4375" x2="18" y2="27.6235" gradientUnits="userSpaceOnUse">
<stop stop-color="white" stop-opacity="0.56"/>
<stop offset="1" stop-opacity="0"/>
</linearGradient>
</defs>
</svg>
