<svg width="54" height="54" viewBox="0 0 54 54" fill="none" xmlns="http://www.w3.org/2000/svg">
<g id="Frame" filter="url(#filter0_i_341_4472)">
<path id="Vector" d="M24.4688 27V10.125C24.4688 9.45367 24.7354 8.80984 25.2101 8.33514C25.6848 7.86043 26.3287 7.59375 27 7.59375C27.6713 7.59375 28.3152 7.86043 28.7899 8.33514C29.2646 8.80984 29.5312 9.45367 29.5312 10.125V27C29.5312 27.6713 29.2646 28.3152 28.7899 28.7899C28.3152 29.2646 27.6713 29.5312 27 29.5312C26.3287 29.5312 25.6848 29.2646 25.2101 28.7899C24.7354 28.3152 24.4688 27.6713 24.4688 27ZM38.5066 9.70312C37.9446 9.35704 37.2696 9.2442 36.6255 9.38866C35.9814 9.53312 35.4193 9.92346 35.0588 10.4764C34.6984 11.0294 34.5683 11.7013 34.6962 12.3489C34.824 12.9965 35.1998 13.5685 35.7434 13.943C40.3755 16.953 43.0312 21.7266 43.0312 27C43.0312 31.2518 41.3422 35.3294 38.3358 38.3358C35.3294 41.3422 31.2518 43.0312 27 43.0312C22.7482 43.0312 18.6706 41.3422 15.6642 38.3358C12.6578 35.3294 10.9688 31.2518 10.9688 27C10.9688 21.7266 13.6245 16.953 18.2566 13.9324C18.7713 13.5467 19.1198 12.9796 19.2314 12.3462C19.343 11.7129 19.2094 11.0608 18.8576 10.5224C18.5059 9.98401 17.9623 9.5997 17.3375 9.44753C16.7126 9.29537 16.0533 9.38675 15.4934 9.70312C9.39937 13.6645 5.90625 19.9737 5.90625 27C5.90625 32.5944 8.12862 37.9597 12.0845 41.9155C16.0403 45.8714 21.4056 48.0938 27 48.0938C32.5944 48.0938 37.9597 45.8714 41.9155 41.9155C45.8714 37.9597 48.0938 32.5944 48.0938 27C48.0938 19.9737 44.6006 13.6645 38.5066 9.70312Z" fill="#F4F4F4"/>
</g>
<defs>
<filter id="filter0_i_341_4472" x="0" y="0" width="54" height="58" filterUnits="userSpaceOnUse" color-interpolation-filters="sRGB">
<feFlood flood-opacity="0" result="BackgroundImageFix"/>
<feBlend mode="normal" in="SourceGraphic" in2="BackgroundImageFix" result="shape"/>
<feColorMatrix in="SourceAlpha" type="matrix" values="0 0 0 0 0 0 0 0 0 0 0 0 0 0 0 0 0 0 127 0" result="hardAlpha"/>
<feOffset dy="4"/>
<feGaussianBlur stdDeviation="2"/>
<feComposite in2="hardAlpha" operator="arithmetic" k2="-1" k3="1"/>
<feColorMatrix type="matrix" values="0 0 0 0 0 0 0 0 0 0 0 0 0 0 0 0 0 0 0.11 0"/>
<feBlend mode="normal" in2="shape" result="effect1_innerShadow_341_4472"/>
</filter>
</defs>
</svg>
